<svg width="48" height="47" viewBox="0 0 48 47" fill="none" xmlns="http://www.w3.org/2000/svg">
<path d="M41.1714 6.83731C36.0211 1.68698 30.5308 -1.16737 28.9024 0.454775C28.893 0.467253 28.8837 0.485971 28.8712 0.498449C28.8587 0.510927 28.84 0.517166 28.8244 0.529644L23.2623 6.09486L13.0864 16.3019C13.024 16.3799 11.9977 17.818 14.2563 21.5833L0.664524 32.7542C-0.112236 33.3969 -0.224538 34.5511 0.414962 35.331C1.05134 36.1109 2.20868 36.2232 2.98856 35.5805L16.3838 24.5624C17.2603 25.6386 18.3303 26.8272 19.6561 28.153C21.3843 29.8812 22.8942 31.1945 24.2075 32.1865L14.3654 43.0674C13.6885 43.8161 13.7478 44.9734 14.4965 45.6535C15.2451 46.3335 16.4025 46.2711 17.0794 45.5224L27.3301 34.1923C30.7803 35.9362 31.9533 34.7383 31.8223 34.9192L42.0293 24.7121C42.0418 24.7028 42.0449 24.6809 42.0574 24.6685L47.5165 19.2093C47.5945 19.1313 47.6476 19.0346 47.6819 18.9317C48.9983 17.1411 46.172 11.8379 41.1714 6.83731ZM45.9724 17.3345C45.049 18.2547 40.8844 15.5813 36.6606 11.3575C32.4399 7.13678 29.7665 2.96911 30.6836 2.04885C31.607 1.12547 35.7716 3.80202 39.9923 8.02584C44.2161 12.2434 46.8895 16.4142 45.9724 17.3345Z" fill="url(#paint0_radial_4_14)"/>
<defs>
<radialGradient id="paint0_radial_4_14" cx="0" cy="0" r="1" gradientUnits="userSpaceOnUse" gradientTransform="translate(24.002 23.0631) rotate(90) scale(23.0631 24.002)">
<stop stop-color="white"/>
<stop offset="0.259615" stop-color="#808080"/>
<stop offset="1" stop-color="#0B0707"/>
</radialGradient>
</defs>
</svg>
