<svg width="15" height="15" viewBox="0 0 15 15" fill="none" xmlns="http://www.w3.org/2000/svg">
<path d="M6 7.875C5.70163 7.875 5.41548 7.99353 5.2045 8.2045C4.99353 8.41548 4.875 8.70163 4.875 9C4.875 9.29837 4.99353 9.58452 5.2045 9.7955C5.41548 10.0065 5.70163 10.125 6 10.125C6.29837 10.125 6.58452 10.0065 6.7955 9.7955C7.00647 9.58452 7.125 9.29837 7.125 9C7.125 8.70163 7.00647 8.41548 6.7955 8.2045C6.58452 7.99353 6.29837 7.875 6 7.875ZM6 9.375C5.90054 9.375 5.80516 9.33549 5.73483 9.26517C5.66451 9.19484 5.625 9.09946 5.625 9C5.625 8.90054 5.66451 8.80516 5.73483 8.73483C5.80516 8.66451 5.90054 8.625 6 8.625C6.09946 8.625 6.19484 8.66451 6.26517 8.73483C6.33549 8.80516 6.375 8.90054 6.375 9C6.375 9.09946 6.33549 9.19484 6.26517 9.26517C6.19484 9.33549 6.09946 9.375 6 9.375ZM6 4.875C5.70163 4.875 5.41548 4.99353 5.2045 5.2045C4.99353 5.41548 4.875 5.70163 4.875 6C4.875 6.29837 4.99353 6.58452 5.2045 6.7955C5.41548 7.00647 5.70163 7.125 6 7.125C6.29837 7.125 6.58452 7.00647 6.7955 6.7955C7.00647 6.58452 7.125 6.29837 7.125 6C7.125 5.70163 7.00647 5.41548 6.7955 5.2045C6.58452 4.99353 6.29837 4.875 6 4.875ZM6 6.375C5.90054 6.375 5.80516 6.33549 5.73483 6.26517C5.66451 6.19484 5.625 6.09946 5.625 6C5.625 5.90054 5.66451 5.80516 5.73483 5.73483C5.80516 5.66451 5.90054 5.625 6 5.625C6.09946 5.625 6.19484 5.66451 6.26517 5.73483C6.33549 5.80516 6.375 5.90054 6.375 6C6.375 6.09946 6.33549 6.19484 6.26517 6.26517C6.19484 6.33549 6.09946 6.375 6 6.375ZM14.625 7.875C14.7245 7.875 14.8198 7.83549 14.8902 7.76517C14.9605 7.69484 15 7.59946 15 7.5C15 7.40054 14.9605 7.30516 14.8902 7.23483C14.8198 7.16451 14.7245 7.125 14.625 7.125H12.75V4.875H14.625C14.7245 4.875 14.8198 4.83549 14.8902 4.76517C14.9605 4.69484 15 4.59946 15 4.5C15 4.40054 14.9605 4.30516 14.8902 4.23484C14.8198 4.16451 14.7245 4.125 14.625 4.125H12.75C12.75 3.62772 12.5525 3.15081 12.2008 2.79917C11.8492 2.44754 11.3723 2.25 10.875 2.25V0.375C10.875 0.275544 10.8355 0.180161 10.7652 0.109835C10.6948 0.0395089 10.5995 0 10.5 0C10.4005 0 10.3052 0.0395089 10.2348 0.109835C10.1645 0.180161 10.125 0.275544 10.125 0.375V2.25H7.875V0.375C7.875 0.275544 7.83549 0.180161 7.76517 0.109835C7.69484 0.0395089 7.59946 0 7.5 0C7.40054 0 7.30516 0.0395089 7.23483 0.109835C7.16451 0.180161 7.125 0.275544 7.125 0.375V2.25H4.875V0.375C4.875 0.275544 4.83549 0.180161 4.76517 0.109835C4.69484 0.0395089 4.59946 0 4.5 0C4.40054 0 4.30516 0.0395089 4.23484 0.109835C4.16451 0.180161 4.125 0.275544 4.125 0.375V2.25C3.62772 2.25 3.15081 2.44754 2.79917 2.79917C2.44754 3.15081 2.25 3.62772 2.25 4.125H0.375C0.275544 4.125 0.180161 4.16451 0.109835 4.23484C0.0395089 4.30516 0 4.40054 0 4.5C0 4.59946 0.0395089 4.69484 0.109835 4.76517C0.180161 4.83549 0.275544 4.875 0.375 4.875H2.25V7.125H0.375C0.275544 7.125 0.180161 7.16451 0.109835 7.23483C0.0395089 7.30516 0 7.40054 0 7.5C0 7.59946 0.0395089 7.69484 0.109835 7.76517C0.180161 7.83549 0.275544 7.875 0.375 7.875H2.25V10.125H0.375C0.275544 10.125 0.180161 10.1645 0.109835 10.2348C0.0395089 10.3052 0 10.4005 0 10.5C0 10.5995 0.0395089 10.6948 0.109835 10.7652C0.180161 10.8355 0.275544 10.875 0.375 10.875H2.25C2.25 11.3723 2.44754 11.8492 2.79917 12.2008C3.15081 12.5525 3.62772 12.75 4.125 12.75V14.625C4.125 14.7245 4.16451 14.8198 4.23484 14.8902C4.30516 14.9605 4.40054 15 4.5 15C4.59946 15 4.69484 14.9605 4.76517 14.8902C4.83549 14.8198 4.875 14.7245 4.875 14.625V12.75H7.125V14.625C7.125 14.7245 7.16451 14.8198 7.23483 14.8902C7.30516 14.9605 7.40054 15 7.5 15C7.59946 15 7.69484 14.9605 7.76517 14.8902C7.83549 14.8198 7.875 14.7245 7.875 14.625V12.75H10.125V14.625C10.125 14.7245 10.1645 14.8198 10.2348 14.8902C10.3052 14.9605 10.4005 15 10.5 15C10.5995 15 10.6948 14.9605 10.7652 14.8902C10.8355 14.8198 10.875 14.7245 10.875 14.625V12.75C11.3723 12.75 11.8492 12.5525 12.2008 12.2008C12.5525 11.8492 12.75 11.3723 12.75 10.875H14.625C14.7245 10.875 14.8198 10.8355 14.8902 10.7652C14.9605 10.6948 15 10.5995 15 10.5C15 10.4005 14.9605 10.3052 14.8902 10.2348C14.8198 10.1645 14.7245 10.125 14.625 10.125H12.75V7.875H14.625ZM12 10.875C12 11.1734 11.8815 11.4595 11.6705 11.6705C11.4595 11.8815 11.1734 12 10.875 12H4.125C3.82663 12 3.54048 11.8815 3.3295 11.6705C3.11853 11.4595 3 11.1734 3 10.875V4.125C3 3.82663 3.11853 3.54048 3.3295 3.3295C3.54048 3.11853 3.82663 3 4.125 3H10.875C11.1734 3 11.4595 3.11853 11.6705 3.3295C11.8815 3.54048 12 3.82663 12 4.125V10.875ZM9 4.875C8.70163 4.875 8.41548 4.99353 8.2045 5.2045C7.99353 5.41548 7.875 5.70163 7.875 6C7.875 6.29837 7.99353 6.58452 8.2045 6.7955C8.41548 7.00647 8.70163 7.125 9 7.125C9.29837 7.125 9.58452 7.00647 9.7955 6.7955C10.0065 6.58452 10.125 6.29837 10.125 6C10.125 5.70163 10.0065 5.41548 9.7955 5.2045C9.58452 4.99353 9.29837 4.875 9 4.875ZM9 6.375C8.90054 6.375 8.80516 6.33549 8.73483 6.26517C8.66451 6.19484 8.625 6.09946 8.625 6C8.625 5.90054 8.66451 5.80516 8.73483 5.73483C8.80516 5.66451 8.90054 5.625 9 5.625C9.09946 5.625 9.19484 5.66451 9.26517 5.73483C9.33549 5.80516 9.375 5.90054 9.375 6C9.375 6.09946 9.33549 6.19484 9.26517 6.26517C9.19484 6.33549 9.09946 6.375 9 6.375ZM9 7.875C8.70163 7.875 8.41548 7.99353 8.2045 8.2045C7.99353 8.41548 7.875 8.70163 7.875 9C7.875 9.29837 7.99353 9.58452 8.2045 9.7955C8.41548 10.0065 8.70163 10.125 9 10.125C9.29837 10.125 9.58452 10.0065 9.7955 9.7955C10.0065 9.58452 10.125 9.29837 10.125 9C10.125 8.70163 10.0065 8.41548 9.7955 8.2045C9.58452 7.99353 9.29837 7.875 9 7.875ZM9 9.375C8.90054 9.375 8.80516 9.33549 8.73483 9.26517C8.66451 9.19484 8.625 9.09946 8.625 9C8.625 8.90054 8.66451 8.80516 8.73483 8.73483C8.80516 8.66451 8.90054 8.625 9 8.625C9.09946 8.625 9.19484 8.66451 9.26517 8.73483C9.33549 8.80516 9.375 8.90054 9.375 9C9.375 9.09946 9.33549 9.19484 9.26517 9.26517C9.19484 9.33549 9.09946 9.375 9 9.375Z" fill="#0D99FF"/>
</svg>
